<?xml version="1.0" standalone="no"?>
<!DOCTYPE svg PUBLIC "-//W3C//DTD SVG 20010904//EN"
 "http://www.w3.org/TR/2001/REC-SVG-20010904/DTD/svg10.dtd">
<svg version="1.0" xmlns="http://www.w3.org/2000/svg"
 width="802.000000pt" height="803.000000pt" viewBox="0 0 802.000000 803.000000"
 preserveAspectRatio="xMidYMid meet">
<metadata>
Created by potrace 1.16, written by Peter Selinger 2001-2019
</metadata>
<g transform="translate(0.000000,803.000000) scale(0.100000,-0.100000)"
fill="#000000" stroke="none">
<path d="M4635 3770 c-302 -60 -538 -315 -577 -625 -19 -151 11 -326 80 -461
55 -107 174 -215 304 -273 141 -63 151 -65 636 -69 l442 -3 0 120 0 121 -147
0 -147 0 45 28 c95 61 175 181 205 309 23 97 14 263 -19 360 -41 119 -92 200
-187 294 -143 142 -307 210 -505 208 -49 -1 -108 -5 -130 -9z m216 -260 c230
-43 402 -293 362 -527 -16 -92 -66 -187 -132 -254 -217 -216 -566 -157 -705
119 -94 186 -57 406 92 543 114 106 242 145 383 119z"/>
<path d="M400 3630 l0 -120 200 0 200 0 0 -585 0 -585 140 0 140 0 0 585 0
585 200 0 200 0 0 120 0 120 -540 0 -540 0 0 -120z"/>
<path d="M1924 3658 c-47 -94 -193 -380 -334 -653 -43 -82 -137 -266 -209
-407 l-133 -258 149 0 149 0 54 110 54 110 331 0 331 0 54 -110 55 -110 148 0
c81 0 147 2 147 6 0 3 -51 105 -114 227 -206 399 -384 748 -494 964 -77 155
-112 213 -124 213 -12 0 -32 -29 -64 -92z m178 -680 c43 -92 78 -170 78 -173
0 -3 -88 -5 -196 -5 -111 0 -194 4 -192 9 2 5 46 99 98 209 l95 201 19 -37
c11 -20 54 -112 98 -204z"/>
<path d="M2770 3045 l0 -705 135 0 135 0 0 225 0 225 134 0 134 0 73 -102 c40
-57 113 -158 163 -225 l90 -123 164 0 164 0 -48 68 c-26 37 -101 138 -166 225
-66 86 -121 164 -124 171 -3 9 10 21 38 35 57 27 139 108 177 174 81 141 82
354 3 501 -56 105 -166 189 -287 221 -48 12 -128 15 -422 15 l-363 0 0 -705z
m712 455 c49 -14 94 -53 120 -103 22 -45 34 -136 24 -190 -10 -51 -60 -120
-108 -147 -41 -24 -51 -25 -260 -28 l-218 -3 0 240 0 241 203 0 c111 0 219 -5
239 -10z"/>
<path d="M5670 3303 c1 -515 5 -560 69 -689 95 -192 294 -304 538 -304 302 0
513 148 590 415 15 52 18 122 21 543 l3 482 -141 0 -140 0 0 -468 c1 -504 1
-504 -54 -590 -30 -48 -74 -83 -142 -114 -69 -31 -199 -31 -268 0 -71 32 -112
66 -142 118 -55 94 -55 90 -54 590 l0 464 -140 0 -140 0 0 -447z"/>
<path d="M7190 3045 l0 -705 140 0 140 0 0 705 0 705 -140 0 -140 0 0 -705z"/>
</g>
</svg>
